<?xml version="1.0" standalone="no"?>
<!DOCTYPE svg PUBLIC "-//W3C//DTD SVG 1.1//EN" "http://www.w3.org/Graphics/SVG/1.1/DTD/svg11.dtd" >
<svg xmlns="http://www.w3.org/2000/svg">
<metadata>Generated by IcoMoon</metadata>
<defs>
<font id="icons" horiz-adv-x="1024">
<font-face units-per-em="1024" ascent="960" descent="-64" />
<missing-glyph horiz-adv-x="1024" />
<glyph unicode="&#x20;" horiz-adv-x="512" d="" />
<glyph unicode="&#xe900;" glyph-name="chair-cafe" d="M12.107 759.551c8.706 11.181 21.092 17.593 33.98 17.593h13.674c35.858 0 65.263-31.689 68.397-73.713l14.794-198.303c1.31-17.572 13.608-30.826 28.606-30.826h128.053c41.032 0 74.415-39.274 74.415-87.546v-8.701c0-29.164-20.166-52.887-44.956-52.887h-27.446l27.028-103.848c0.020-0.079 0.040-0.154 0.060-0.232l20.659-79.378c2.427-9.322-2.028-19.186-9.949-22.040-1.464-0.529-2.944-0.778-4.398-0.778-6.418 0-12.36 4.884-14.336 12.483l-17.424 66.943h-205.742l-17.424-66.943c-1.976-7.598-7.916-12.483-14.336-12.483-1.456 0-2.936 0.249-4.398 0.778-7.92 2.854-12.376 12.721-9.95 22.040l49.035 188.387c-8.61 2.871-16.924 6.95-24.724 12.209-7.186 4.847-9.672 15.63-5.552 24.084 4.12 8.451 13.288 11.377 20.474 6.53 12.088-8.151 25.878-12.462 39.88-12.462h150.806c0.050 0 0.1 0 0.148 0h47.586c8.246 0 14.957 7.892 14.957 17.596v8.697c0 28.812-19.924 52.252-44.414 52.252h-128.053c-30.666 0-55.813 27.102-58.493 63.038l-14.792 198.304c-1.764 23.661-18.32 41.505-38.51 41.505h-13.674c-4.564 0-8.778-2.181-11.86-6.141-3.084-3.96-4.564-9.087-4.164-14.438l20.484-274.613c0.504-6.772 1.626-13.472 3.332-19.913 2.464-9.308-1.952-19.2-9.862-22.098-7.92-2.898-16.318 2.301-18.784 11.599-2.342 8.854-3.88 18.046-4.574 27.327l-20.484 274.614c-1.12 15.103 3.228 30.181 11.934 41.362zM270.253 325.166h-139.711l-23.828-91.553h187.37l-23.83 91.553zM724.391 474.268h128.056c14.998 0 27.293 13.251 28.604 30.826l14.793 198.304c3.133 42.023 32.536 73.713 68.397 73.713h13.674c12.889 0 25.272-6.412 33.98-17.593 8.704-11.181 13.053-26.258 11.93-41.367l-20.483-274.614c-2.42-32.406-14.978-62.356-35.369-84.331-12.81-13.807-28.020-23.709-44.411-29.17l49.027-188.363c2.427-9.318-2.028-19.186-9.95-22.040-1.464-0.526-2.942-0.778-4.396-0.778-6.417 0-12.36 4.888-14.336 12.486l-17.425 66.943h-205.741l-17.425-66.943c-1.976-7.598-7.916-12.486-14.336-12.486-1.454 0-2.935 0.253-4.396 0.778-7.922 2.854-12.377 12.721-9.95 22.040l20.657 79.378c0.020 0.079 0.041 0.157 0.061 0.236l27.027 103.845h-27.443c-24.791 0-44.954 23.726-44.954 52.891v8.697c0 48.276 33.379 87.55 74.412 87.55zM917.294 233.582l-23.828 91.553h-139.709l-23.828-91.553h187.367zM679.98 378.021c0-9.701 6.707-17.592 14.954-17.592h47.575c0.058 0 0.116 0 0.177 0h150.789c3.205 0 6.362 0.242 9.469 0.666 0.003 0 0.007 0 0.010 0 37.53 5.103 67.117 40.151 70.503 85.532l20.483 274.611c0.399 5.353-1.082 10.48-4.164 14.44s-7.294 6.141-11.861 6.141h-13.674c-20.19 0-36.745-17.842-38.509-41.505l-14.793-198.301c-2.679-35.936-27.825-63.035-58.492-63.035h-128.052c-24.491 0-44.414-23.443-44.414-52.252v-8.704zM398.114 177.104c6.188 27.993 27.682 47.541 52.269 47.541h9.284v321.256h-184.71c-10.64 0-20.598 5.564-27.322 15.264-6.724 9.704-9.354 22.303-7.21 34.563 6.452 36.905 34.376 63.689 66.399 63.689h311.859c8.284 0 14.998-7.901 14.998-17.647s-6.714-17.647-14.998-17.647h-311.859c-17.852 0-33.416-14.932-37.012-35.501-0.438-2.502 0.486-4.304 1.074-5.154 0.59-0.85 1.902-2.277 4.072-2.277h474.113c2.167 0 3.482 1.427 4.072 2.277 0.587 0.85 1.512 2.652 1.072 5.151-3.594 20.572-19.159 35.504-37.011 35.504h-28.167c-8.288 0-15.002 7.901-15.002 17.647s6.714 17.647 15.002 17.647h28.167c32.024 0 59.949-26.783 66.401-63.689 2.14-12.264-0.488-24.863-7.212-34.563s-16.681-15.264-27.32-15.264h-184.711v-321.256h9.281c24.586 0 46.080-19.552 52.269-47.541l3.523-15.923c2.256-10.199 0.406-20.828-5.072-29.167-5.478-8.335-13.759-13.117-22.716-13.117h-179.26c-8.96 0-17.237 4.779-22.716 13.117s-7.328 18.968-5.072 29.167l3.519 15.923zM534.358 545.901h-44.694v-321.256h44.694v321.256zM599.98 154.19l-3.106 14.029c-2.748 12.442-12.302 21.132-23.231 21.132h-123.26c-10.926 0-20.48-8.69-23.231-21.132l-3.103-14.029h175.932z" />
<glyph unicode="&#xe901;" glyph-name="delivery" d="M123.714 802.964c-17.824 0-32.286-14.392-32.286-32.214s14.464-32.286 32.286-32.286h505.502v-225.858c0-17.824 14.464-32.286 32.285-32.286h251.001l46.929-60.57v-166.43h-61.287c-14.051 56.064-64.428 97.927-124.786 97.927-60.391 0-110.841-41.823-124.859-97.927h-191.357c-14.047 56.064-64.428 97.927-124.786 97.927s-110.737-41.864-124.786-97.927h-83.857c-17.824 0-32.286-14.46-32.286-32.285 0-17.821 14.464-32.216 32.286-32.216h84.5c14.806-54.959 64.569-95.784 124.143-95.784s109.338 40.825 124.142 95.784h192.717c14.804-54.974 64.567-95.784 124.142-95.784 59.582 0 109.338 40.825 124.142 95.784h94.215c17.821 0 32.281 14.464 32.285 32.285v209.715c0 7.164-2.396 14.128-6.784 19.786l-60.146 77.5-96.787 192.572c-5.486 10.896-16.659 17.786-28.855 17.786h-137.644v32.286c0 17.824-14.46 32.214-32.285 32.214h-537.787zM693.787 673.893h117.786l64.856-129.072h-182.642v129.072zM85 670.678c-17.824 0-32.286-14.464-32.286-32.286 0-17.824 14.464-32.214 32.286-32.214h275.358c17.824 0 32.284 14.392 32.284 32.214s-14.46 32.286-32.284 32.286h-275.358zM32.286 543.749c-17.822 0-32.286-14.462-32.286-32.286s14.464-32.214 32.286-32.214h275.358c17.824 0 32.286 14.392 32.286 32.214s-14.461 32.286-32.286 32.286h-275.358zM85 416.821c-17.824 0-32.286-14.394-32.286-32.216 0-17.825 14.464-32.285 32.286-32.285h148.429c17.824 0 32.286 14.46 32.286 32.285 0.002 17.821-14.464 32.216-32.286 32.216h-148.429zM332.358 286.678c35.584 0 64.571-28.91 64.571-64.501 0-35.595-28.979-64.571-64.571-64.571s-64.5 28.976-64.5 64.571c0 35.591 28.908 64.501 64.5 64.501zM773.359 286.678c35.591 0 64.571-28.91 64.571-64.501 0-35.595-28.979-64.571-64.571-64.571s-64.501 28.976-64.501 64.571c0 35.591 28.91 64.501 64.501 64.501z" />
<glyph unicode="&#xe902;" glyph-name="discount" d="M512 959.999c-23.147 0-46.265-8.679-64.276-26.108l-62.064-60.002c-5.835-5.645-13.711-8.231-21.758-7.1l-85.421 12.062c-49.639 7.025-95.389-26.203-104.049-75.576l-14.962-85.040c-1.403-7.996-6.265-14.668-13.435-18.473l-76.186-40.459c-44.279-23.492-61.785-77.262-39.772-122.295l37.864-77.557c3.565-7.293 3.565-15.611 0-22.904l-37.864-77.557c-22.013-45.038-4.584-98.803 39.696-122.293l76.262-40.461c7.171-3.803 12.032-10.482 13.435-18.475l14.962-85.037c7.884-44.943 46.438-76.498 90.765-76.494 4.365 0 8.836 0.29 13.283 0.918l85.421 12.062c8.036 1.137 15.92-1.38 21.758-7.024l62.064-60.003c18.006-17.425 41.125-26.183 64.276-26.183 23.138 0.004 46.347 8.759 64.354 26.183l61.986 60.003c5.835 5.64 13.715 8.149 21.758 7.024l85.499-12.062c49.642-7.024 95.388 26.202 104.049 75.576l14.883 85.037c1.408 7.997 6.265 14.668 13.437 18.475l76.26 40.461c44.28 23.49 61.712 77.256 39.699 122.293l-37.865 77.557c-3.564 7.293-3.564 15.611 0 22.904l37.865 77.557c22.013 45.038 4.581 98.801-39.699 122.295l-76.26 40.536c-7.141 3.809-12.038 10.424-13.437 18.397l-14.883 85.040c-8.661 49.372-54.43 82.596-104.049 75.576l-85.499-12.062c-8.043-1.135-15.923 1.456-21.758 7.1l-61.986 60.002c-18.015 17.427-41.207 26.107-64.354 26.108zM512 893.509c6.496 0 12.996-2.474 18.093-7.405l62.064-60.002c20.633-19.963 48.829-29.139 77.251-25.115l85.425 12.138c14.039 1.986 26.937-7.328 29.388-21.299l14.887-85.041c4.964-28.279 22.349-52.273 47.711-65.727l76.263-40.459c12.527-6.649 17.447-21.685 11.222-34.43l-37.94-77.557c-12.605-25.792-12.605-55.431 0-81.227l37.94-77.557c6.23-12.75 1.309-27.782-11.222-34.43l-76.263-40.461c-25.355-13.453-42.751-37.447-47.711-65.726l-14.887-84.963c-2.451-13.969-15.263-23.283-29.314-21.298l-85.499 12.062c-28.43 4.030-56.618-5.156-77.251-25.116l-61.989-60.003c-10.189-9.861-26.062-9.861-36.259 0l-62.064 60.003c-17.436 16.866-40.223 26.031-64.049 26.031-4.362 0-8.802-0.293-13.205-0.915l-85.423-12.062c-14.036-1.986-26.862 7.328-29.314 21.298l-14.962 84.963c-4.962 28.278-22.35 52.273-47.711 65.726l-76.262 40.461c-12.531 6.649-17.374 21.685-11.146 34.43l38.704 79.316-0.84 0.379c11.315 24.624 11.315 52.327 0 76.951l0.84 0.379-0.84 1.759-0.84 1.755-37.024 75.802c-6.229 12.741-1.385 27.782 11.146 34.43l1.756 0.915c26.687 13.567 54.845 29.267 75.803 41.3 24.259 13.642 41.587 36.452 46.414 63.971l14.962 85.041c2.453 13.972 15.264 23.283 29.314 21.299l85.423-12.138c27.662-3.916 54.721 5.565 75.194 24.428l0.688-0.687 1.372 1.374 1.45 1.373 60.613 58.628c5.097 4.93 11.597 7.404 18.093 7.405zM394.819 711.749c-59.248 0-107.483-48.234-107.483-107.486 0-59.25 48.234-107.406 107.483-107.406s107.41 48.157 107.41 107.406c0 59.253-48.16 107.486-107.41 107.486zM705.365 670.678c-7.5 0-14.965-2.828-20.687-8.55l-386.807-386.807c-11.444-11.444-11.444-30.006 0-41.45 5.722-5.722 13.189-8.626 20.687-8.626s15.044 2.904 20.764 8.626l386.805 386.805c11.448 11.446 11.444 30.006 0 41.452-5.722 5.722-13.262 8.55-20.762 8.55zM394.819 653.121c26.93 0 48.782-21.926 48.782-48.858-0.004-26.933-21.852-48.778-48.782-48.778-26.933 0-48.854 21.845-48.854 48.778s21.921 48.858 48.854 48.858zM629.255 399.144c-59.25 0-107.484-48.157-107.484-107.406 0-59.253 48.235-107.484 107.484-107.484s107.406 48.231 107.406 107.484c0 59.25-48.157 107.406-107.406 107.406zM629.255 340.516c26.933 0 48.778-21.848 48.778-48.778 0-26.933-21.845-48.856-48.778-48.856-26.93 0-48.856 21.923-48.856 48.856 0 26.93 21.923 48.778 48.856 48.778z" />
<glyph unicode="&#xe903;" glyph-name="discount2" d="M1011.53 450.517c20.48 33.284 15.336 75.678-12.502 103.103l-39.922 39.326c-9.053 8.923-13.735 21.313-12.828 33.997l3.998 56.167c2.789 39.162-21.518 74.428-59.108 85.76l-52.862 15.936c-12.251 3.696-22.198 12.548-27.285 24.29l-22.128 51.044c-15.467 35.687-54.407 56.15-92.566 48.662l-53.634-10.525c-12.623-2.478-25.605 0.736-35.616 8.817l-42.696 34.472c-30.352 24.506-74.413 24.506-104.765 0l-42.696-34.472c-10.013-8.082-22.993-11.292-35.616-8.817l-53.639 10.528c-38.156 7.49-77.091-12.972-92.564-48.654l-22.138-51.058c-5.088-11.74-15.036-20.592-27.286-24.286l-52.851-15.933c-37.588-11.332-61.894-46.596-59.104-85.758l4-56.171c0.904-12.684-3.776-25.069-12.832-33.997l-39.922-39.326c-27.836-27.425-32.976-69.818-12.496-103.103l29.518-47.97c6.651-10.808 8.237-23.943 4.354-36.026l-17.27-53.704c-11.981-37.264 3.156-77.247 36.814-97.229l47.842-28.407c10.963-6.507 18.481-17.45 20.623-30.022l9.416-55.231c6.619-38.834 38.723-67.315 78.062-69.273l54.8-2.722c12.818-0.633 24.626-6.861 32.392-17.077l33.41-43.963c16.109-21.192 41.16-32.833 66.672-32.833 11.845 0 23.799 2.509 34.998 7.732l49.533 23.133c11.668 5.446 25.055 5.446 36.725 0l49.53-23.133c35.323-16.491 78.085-5.94 101.675 25.107l33.402 43.949c7.769 10.221 19.577 16.449 32.4 17.083l54.808 2.727c39.34 1.955 71.442 30.436 78.062 69.27l9.412 55.231c2.146 12.572 9.663 23.515 20.625 30.022l47.844 28.407c33.661 19.982 48.794 59.965 36.812 97.224l-17.268 53.713c-3.887 12.083-2.3 25.214 4.351 36.026l29.52 47.97zM947.95 423.512c-12.782-20.777-15.83-46.005-8.364-69.228l17.268-53.709c6.238-19.391-1.643-40.197-19.158-50.6l-47.839-28.402c-21.071-12.511-35.519-33.536-39.634-57.689l-9.416-55.231c-3.444-20.21-20.15-35.034-40.62-36.050l-54.813-2.722c-24.636-1.224-47.328-13.191-62.251-32.833l-33.402-43.949c-12.279-16.156-34.532-21.644-52.912-13.066l-49.533 23.133c-22.42 10.468-48.142 10.468-70.563 0l-49.533-23.133c-18.381-8.578-40.634-3.090-52.909 13.061l-33.416 43.958c-14.927 19.637-37.613 31.604-62.247 32.829l-54.8 2.722c-20.472 1.014-37.176 15.839-40.622 36.045l-9.414 55.235c-4.117 24.153-18.562 45.177-39.632 57.684l-47.842 28.407c-17.517 10.398-25.396 31.204-19.158 50.6l17.27 53.709c7.465 23.217 4.418 48.449-8.366 69.228l-29.518 47.97c-10.658 17.319-7.983 39.382 6.504 53.653l39.922 39.326c17.406 17.147 26.391 40.955 24.658 65.327l-4 56.171c-1.452 20.378 11.196 38.73 30.758 44.628l52.851 15.933c23.542 7.095 42.654 24.108 52.434 46.665l22.138 51.056c6.938 16.001 22.938 26.12 39.938 26.12 2.73 0 5.484-0.262 8.229-0.802l53.64-10.528c24.26-4.757 49.208 1.418 68.441 16.946l42.691 34.478c15.797 12.754 38.725 12.754 54.519 0l42.696-34.469c19.237-15.532 44.185-21.706 68.445-16.946l53.634 10.527c19.861 3.902 40.123-6.751 48.17-25.322l22.128-51.044c9.783-22.562 28.896-39.574 52.443-46.672l52.862-15.936c19.558-5.897 32.209-24.249 30.757-44.63l-3.998-56.168c-1.736-24.372 7.252-48.179 24.66-65.327l39.918-39.326c14.49-14.275 17.161-36.334 6.502-53.658l-29.52-47.97zM271.996 716.916c-7.767 7.848-20.427 7.913-28.278 0.143l-0.291-0.291c-7.848-7.769-7.913-20.43-0.143-28.279 3.911-3.949 9.059-5.926 14.211-5.926 5.085 0 10.168 1.928 14.067 5.785l0.293 0.293c7.845 7.767 7.91 20.43 0.14 28.279zM885.508 517.854c-14.052 75.553-50.306 144.311-104.844 198.846-123.002 123-313.21 146.919-462.564 58.163-9.493-5.642-12.617-17.912-6.973-27.406s17.911-12.614 27.407-6.973c133.614 79.408 303.798 57.996 413.855-52.062 98.402-98.408 126.957-244.807 72.737-372.97-4.301-10.17 0.456-21.905 10.626-26.206 2.542-1.075 5.185-1.582 7.783-1.582 7.792 0 15.198 4.584 18.423 12.209 29.128 68.85 37.273 144.231 23.552 217.982zM780.725 207.61c-7.769 7.843-20.429 7.913-28.276 0.14l-0.293-0.293c-7.848-7.764-7.913-20.429-0.144-28.276 3.915-3.952 9.062-5.926 14.215-5.926 5.083 0 10.17 1.927 14.066 5.781l0.293 0.293c7.843 7.769 7.907 20.434 0.14 28.281zM712.908 148.641c-5.641 9.496-17.911 12.614-27.406 6.972-53.937-32.056-113.818-47.676-173.313-47.676-87.887 0.005-174.914 34.113-240.542 99.743-98.405 98.402-126.956 244.806-72.739 372.965 4.304 10.17-0.454 21.905-10.623 26.206s-21.904-0.452-26.206-10.626c-29.128-68.85-37.269-144.226-23.552-217.982 14.053-75.553 50.308-144.31 104.845-198.848 73.349-73.346 170.593-111.458 268.824-111.458 66.5 0 133.451 17.468 193.741 53.299 9.491 5.641 12.614 17.911 6.972 27.406zM594.659 611.746c-9.617 5.427-21.816 2.034-27.243-7.582l-185.377-328.375c-5.427-9.621-2.034-21.816 7.582-27.243 3.109-1.755 6.479-2.587 9.811-2.587 6.977 0 13.759 3.659 17.431 10.17l185.377 328.375c5.432 9.617 2.034 21.811-7.582 27.243zM632.482 399.172c-46.308 0-83.982-37.674-83.982-83.986 0-46.308 37.674-83.982 83.982-83.982s83.986 37.674 83.986 83.982c0 46.313-37.674 83.986-83.986 83.986zM632.482 271.195c-24.254 0-43.991 19.735-43.991 43.994s19.735 43.991 43.991 43.991c24.26 0 43.994-19.731 43.994-43.991s-19.735-43.994-43.994-43.994zM391.53 664.912c-46.308 0-83.986-37.675-83.986-83.984 0-46.313 37.673-83.982 83.986-83.982 46.308 0 83.982 37.669 83.982 83.982 0 46.308-37.674 83.984-83.982 83.984zM391.53 536.937c-24.26 0-43.994 19.735-43.994 43.991 0 24.26 19.735 43.994 43.994 43.994 24.254 0 43.991-19.735 43.991-43.994 0-24.254-19.735-43.991-43.991-43.991z" />
<glyph unicode="&#xe904;" glyph-name="plane" d="M19.109 927.543c17.873 16.472 43.992 20.365 65.892 9.821l905.436-435.95c20.52-9.88 33.563-30.64 33.563-53.413s-13.042-43.532-33.563-53.416l-905.436-435.951c-21.901-10.543-48.018-6.649-65.892 9.822-17.873 16.475-23.881 42.19-15.156 64.873l159.489 414.672-159.489 414.67c-8.725 22.687-2.718 48.4 15.155 64.874zM64.426 894.633c-4.381 2.109-9.603 1.331-13.179-1.964s-4.776-8.437-3.030-12.975l162.763-423.181c2.108-5.482 2.108-11.548 0-17.027l-162.763-423.184c-1.745-4.534-0.544-9.679 3.031-12.971 3.574-3.296 8.798-4.074 13.178-1.968l905.437 435.951c4.102 1.977 6.711 6.128 6.711 10.685 0 4.553-2.609 8.707-6.711 10.68l-905.437 435.952zM108.618 830.42c7.15 6.588 17.597 8.145 26.356 3.927l684.167-329.413c9.969-4.8 15.295-15.855 12.834-26.641s-12.055-18.437-23.119-18.437h-557.47c-9.812 0-18.609 6.041-22.132 15.199l-126.698 329.413c-3.49 9.075-1.087 19.361 6.062 25.949zM168.291 765.671l99.381-258.389h437.275l-536.656 258.389zM229.254 420.945c3.523 9.158 12.321 15.199 22.132 15.199h557.47c11.064 0 20.659-7.649 23.119-18.44 2.462-10.784-2.864-21.84-12.834-26.639l-684.167-329.415c-8.76-4.216-19.208-2.661-26.356 3.926-7.15 6.592-9.553 16.879-6.062 25.951l126.698 329.415zM267.671 388.719l-99.381-258.391 536.656 258.391h-437.275z" />
<glyph unicode="&#xe905;" glyph-name="medal" d="M920.92 77.359l-172.412 298.628c63.778 61.837 103.492 148.369 103.492 244.013 0 187.476-152.521 340-340 340-187.478 0-340-152.524-340-340 0-95.644 39.712-182.176 103.496-244.013l-172.414-298.628c-4.046-7.010-3.47-15.765 1.462-22.187 4.93-6.413 13.244-9.225 21.062-7.125l132.908 35.81 35.444-133.009c2.084-7.821 8.676-13.615 16.702-14.677 0.88-0.115 1.758-0.171 2.63-0.171 7.076 0 13.71 3.759 17.314 9.997l181.396 314.193 181.396-314.189c3.605-6.242 10.24-10.001 17.314-10.001 0.87 0 1.749 0.060 2.628 0.175 8.026 1.062 14.622 6.857 16.704 14.677l35.443 133.005 132.911-35.806c7.821-2.108 16.128 0.708 21.060 7.125s5.508 15.172 1.463 22.182zM212.001 620c0 165.42 134.58 300 300 300s300-134.58 300-300-134.579-300-300-300c-165.42 0-300 134.579-300 300zM320.153 7.898l-28.15 105.638c-1.368 5.133-4.724 9.51-9.326 12.169s-10.070 3.375-15.204 1.993l-105.56-28.442 144.442 250.18c48.71-37.116 107.688-61.402 171.866-67.763l-158.068-273.775zM756.53 127.697c-5.137 1.382-10.603 0.666-15.206-1.993-4.599-2.658-7.957-7.036-9.327-12.169l-28.147-105.638-158.067 273.779c64.175 6.362 123.153 30.647 171.866 67.763l144.439-250.18-105.557 28.437zM386.705 660.78c-4.262-13.13-0.768-27.27 9.12-36.902l31.984-31.162-7.538-44.012c-2.33-13.606 3.162-27.096 14.332-35.207 6.31-4.582 13.688-6.908 21.118-6.908 5.724 0 11.478 1.382 16.794 4.177l39.518 20.791 39.531-20.77c12.22-6.421 26.748-5.367 37.914 2.752 11.166 8.115 16.649 21.608 14.31 35.212l-7.561 44.010 31.97 31.178c9.882 9.638 13.367 23.78 9.097 36.906-4.267 13.126-15.407 22.512-29.065 24.494l-44.194 6.41-19.772 40.038c-6.114 12.376-18.479 20.060-32.278 20.060 0.004 0-0.002 0 0 0-13.802-0.004-26.18-7.696-32.288-20.076l-19.75-40.048-44.188-6.434c-13.658-1.992-24.792-11.382-29.054-24.51zM476.117 653.655c6.514 0.948 12.144 5.042 15.056 10.944l20.816 42.208 20.839-42.198c2.918-5.902 8.55-9.992 15.061-10.936l46.579-6.756-33.694-32.86c-4.71-4.596-6.861-11.216-5.747-17.704l7.97-46.384-41.664 21.89c-5.828 3.062-12.789 3.060-18.615-0.004l-41.652-21.912 7.944 46.388c1.112 6.488-1.042 13.108-5.756 17.702l-33.71 32.842 46.572 6.78zM512.001 368c138.955 0 252 113.045 252 251.999 0 102.418-61.158 193.87-155.81 232.986-10.219 4.224-21.909-0.636-26.125-10.844s0.636-21.904 10.846-26.122c79.633-32.91 131.089-109.854 131.089-196.020 0-116.899-95.104-211.999-212-211.999-116.898 0-212 95.1-212 211.999 0 86.372 51.624 163.384 131.518 196.196 10.218 4.196 15.1 15.882 10.904 26.098-4.198 10.218-15.88 15.098-26.098 10.904-94.964-39.002-156.324-130.536-156.324-233.198 0-138.954 113.048-251.999 252-251.999zM512.259 832c5.261 0 10.423 2.14 14.144 5.86 3.716 3.72 5.858 8.88 5.858 14.14s-2.142 10.42-5.858 14.14c-3.721 3.72-8.883 5.86-14.144 5.86-5.258 0-10.418-2.14-14.138-5.86-3.74-3.72-5.86-8.88-5.86-14.14s2.12-10.42 5.86-14.14c3.72-3.72 8.88-5.86 14.138-5.86z" />
<glyph unicode="&#xe906;" glyph-name="table" d="M39.003 794.485h164c8.286 0 15-6.716 15-15s-6.714-15-15-15h-164c-4.962 0-9-4.038-9-9v-43.298c0-2.298 0.844-4.020 1.556-5.062-0.006 0.006 0.006-0.006 0 0 1.686-2.454 4.478-3.936 7.444-3.936 9.024 0 937.006 0 945.995 0 4.963 0 9 4.038 9 9v43.298c0 4.962-4.037 9-9 9h-711.996c-8.286 0-15 6.716-15 15s6.714 15 15 15h711.996c21.504 0 39.003-17.496 39.003-39v-43.298c0-21.504-17.499-39-39.003-39h-16v-63.134c0-28.123-22.875-50.999-50.999-50.999h-32.848v-177.001c0-8.283-6.718-14.998-15.002-14.998s-14.998 6.715-14.998 14.998v177.001h-57.574l25.757-412.612c0.523-8.375 7.501-14.932 15.89-14.932 8.781 0 15.923 7.142 15.923 15.923v164.623c0 8.283 6.715 14.998 15.002 14.998 8.283 0 14.998-6.715 14.998-14.998v-164.623c0-25.322-20.601-45.923-45.923-45.923-24.192 0-44.325 18.915-45.831 43.063l-25.878 414.481h-511.032l-25.876-414.481c-1.508-24.148-21.64-43.063-45.834-43.063-25.322 0-45.924 20.601-45.924 45.923v411.618h-32.848c-28.122 0-51 22.875-51 50.998v63.134h-16c-12.826 0-24.824 6.304-32.112 16.866-0.012 0.018-0.026 0.036-0.038 0.052-4.482 6.518-6.852 14.154-6.852 22.082v43.298c0.002 21.506 17.498 39.002 39.002 39.002zM168.853 147.432c0-8.781 7.142-15.923 15.924-15.923 8.388 0 15.37 6.557 15.892 14.928l25.76 412.616h-57.576v-411.621zM85.003 610.052c0-11.58 9.42-20.999 21-20.999 12.628 0 791.536 0 811.997 0 11.582 0 20.999 9.419 20.999 20.999v63.134h-853.997v-63.134z" />
<glyph unicode="&#xe907;" glyph-name="icon-1-1" d="M814.509 537.001l-27.853 170.448c-1.331 8.168-9.015 13.708-17.203 12.371-8.168-1.335-13.706-9.037-12.371-17.204l24.848-152.051c-126.771 25.055-259.714 31.49-395.214 19.079-8.242-0.755-14.312-8.047-13.556-16.29 0.755-8.239 8.064-14.316 16.288-13.556 133.729 12.249 264.849 5.786 389.721-19.212 21.13-4.23 36.466-23.032 36.466-44.705v-47.281c0-25.159-20.468-45.627-45.627-45.627h-515.99c-25.158 0-45.626 20.468-45.626 45.627v46.348c0 21.992 15.678 40.862 37.274 44.871 26.613 4.939 53.711 9.263 80.542 12.851 8.201 1.095 13.961 8.633 12.865 16.837s-8.639 13.97-16.839 12.867c-27.33-3.655-54.93-8.058-82.036-13.091l42.137 259.099c11.466 70.49 71.619 121.65 143.030 121.65h171.402c71.357 0 131.501-51.114 143.009-121.54l6.928-42.379c1.335-8.166 9.027-13.702 17.207-12.371 8.164 1.334 13.706 9.039 12.367 17.206l-6.928 42.377c-6.68 40.904-27.754 78.212-59.337 105.053-31.583 26.843-71.802 41.624-113.247 41.624h-171.402c-41.47 0-81.707-14.797-113.297-41.665s-52.654-64.209-59.311-105.141l-45.326-278.689c-17.816-13.958-29.009-35.643-29.009-59.557v-46.348c0-41.685 33.912-75.595 75.595-75.595h11.326l-58.43-385.087c-1.215-8.007 1.115-16.116 6.391-22.256s12.949-9.661 21.044-9.661h14.883c12.347 0 23.027 7.944 26.579 19.767l93.055 309.748 34.164 21.165h217.958l34.166-21.165 15.104-50.271c1.95-6.491 7.897-10.677 14.344-10.677 1.43 0 2.879 0.205 4.317 0.634 7.928 2.383 12.422 10.74 10.039 18.664l-38.798 129.138h68.206l58.726-387.037h-10.657l-59.104 196.738c-2.379 7.928-10.732 12.418-18.66 10.039-7.928-2.383-12.422-10.736-10.039-18.664l59.577-198.313c3.552-11.823 14.234-19.771 26.581-19.771h14.883c8.094 0 15.766 3.521 21.043 9.661s7.609 14.253 6.392 22.256l-58.431 385.091h11.327c41.685 0 75.595 33.91 75.595 75.595v47.281c0.004 24.745-12.091 47.23-31.090 61.121zM247.585-34.032h-10.655l58.726 387.037h68.204l-116.275-387.037zM642.143 308.831l-5.679 3.521c-4.541 2.812-9.763 4.301-15.104 4.301h-218.691c-5.341 0-10.563-1.489-15.11-4.301l-5.678-3.517 13.27 44.174h233.72l13.273-44.178z" />
<glyph unicode="&#xe908;" glyph-name="Icon-2" horiz-adv-x="622" d="M402.75 764.462c12.632 72.075 12.632 84.631 12.628 88.757 0.004 28.522-10.869 55.338-30.61 75.506-19.743 20.168-45.991 31.275-73.911 31.275-27.918-0.001-54.166-11.109-73.909-31.278-19.742-20.168-30.613-46.984-30.614-75.504 0-4.128 0-16.69 12.631-88.758 7.591-43.323-14.782-85.714-54.415-103.087-6.844-3.001-10.025-11.115-7.083-18.116 2.941-6.999 10.879-10.24 17.733-7.236 51.241 22.462 80.166 77.274 70.348 133.303-10.623 60.606-12.208 78.577-12.208 83.896-0.001 21.152 8.062 41.039 22.703 55.996 14.642 14.958 34.109 23.195 54.814 23.194 20.708 0.004 40.174-8.235 54.816-23.193s22.706-34.842 22.702-55.997c0.004-5.315-1.584-23.282-12.204-83.896-9.819-56.026 19.109-110.842 70.345-133.303l92.347-40.481c33.927-14.87 55.845-48.849 55.845-86.561v-480.614c0-35.716-28.442-64.775-63.408-64.775h-440.888c-16.935-0.004-32.856 6.736-44.834 18.97-11.978 12.237-18.571 28.504-18.572 45.806l0.003 480.614c-0.001 37.712 21.921 71.687 55.844 86.56l39.766 17.434c6.856 3.004 10.026 11.114 7.083 18.116-2.942 7-10.879 10.24-17.733 7.236l-39.767-17.433c-43.861-19.225-72.201-63.152-72.201-111.913l0.003-480.618c-0.001-24.667 9.404-47.861 26.48-65.306s39.78-27.052 63.93-27.056h440.886c24.927 0 47.532 10.357 63.905 27.085 16.369 16.724 26.511 39.815 26.511 65.28v480.614c0 48.757-28.339 92.686-72.199 111.913l-92.35 40.481c-39.632 17.373-62.007 59.765-54.415 103.089zM482.988 549.72h-344.273c-17.099 0-33.173-6.806-45.264-19.156-12.089-12.35-18.749-28.774-18.75-46.241v-414.281c0-17.47 6.659-33.891 18.75-46.241 12.089-12.354 28.165-19.156 45.264-19.156h344.276c17.097 0 33.174 6.802 45.264 19.152 12.091 12.354 18.75 28.774 18.75 46.245v21.2c0 7.618-6.045 13.795-13.506 13.795-7.457 0-13.502-6.177-13.502-13.795v-21.2c0-20.849-16.603-37.811-37.007-37.808h-344.276c-20.408 0-37.010 16.962-37.009 37.808v414.285c0 10.097 3.85 19.591 10.838 26.73 6.99 7.142 16.283 11.074 26.168 11.074h344.275c20.411 0.004 37.010-16.958 37.010-37.808v-337.258c0-7.618 6.045-13.795 13.502-13.795s13.502 6.177 13.502 13.795v337.258c0 17.47-6.656 33.891-18.75 46.241-12.091 12.354-28.164 19.156-45.264 19.156zM282.21 889.106c-15.793-16.134-15.794-42.386 0-58.522s41.492-16.133 57.285 0c15.793 16.134 15.794 42.387 0 58.522-15.795 16.136-41.492 16.133-57.285 0zM320.4 850.091c-5.265-5.379-13.83-5.379-19.095 0s-5.264 14.13 0 19.507c5.265 5.379 13.83 5.379 19.095 0s5.265-14.128 0-19.507z" />
<glyph unicode="&#xe909;" glyph-name="arrow-right" d="M575.938 916.231c-18.177 18.212-47.65 18.212-65.827 0s-18.177-47.739 0-65.951l354.971-355.647h-818.535c-25.707 0-46.547-20.879-46.547-46.634s20.84-46.635 46.547-46.635h818.535l-354.971-355.646c-18.177-18.209-18.177-47.737 0-65.946 18.177-18.216 47.65-18.216 65.827 0l434.428 435.252c18.179 18.212 18.179 47.74 0 65.951l-434.428 435.254z" />
<glyph unicode="&#xe90a;" glyph-name="search" d="M755.36 148.944l201.407-201.413c15.381-15.375 40.314-15.375 55.695 0 15.381 15.381 15.381 40.319 0 55.701l-201.407 201.407c67.348 79.941 107.924 183.165 107.924 295.873 0 253.767-205.719 459.488-459.488 459.488s-459.488-205.72-459.488-459.488c0-253.768 205.72-459.488 459.488-459.488 112.703 0 215.927 40.576 295.868 107.919zM78.774 500.512c0 210.265 170.453 380.718 380.718 380.718 210.267 0 380.718-170.453 380.718-380.718 0-102.952-40.866-196.361-107.258-264.89-1.617-1.182-3.161-2.499-4.615-3.959-1.459-1.459-2.777-2.999-3.959-4.615-68.529-66.392-161.933-107.252-264.885-107.252-210.265 0-380.718 170.451-380.718 380.718z" />
<glyph unicode="&#xe90b;" glyph-name="mail" d="M109.211 797.154c5.951 1.849 12.262 2.846 18.79 2.846h768.001c6.528 0 12.838-0.997 18.791-2.846-2.195-0.996-4.307-2.258-6.304-3.79l-396.486-304.992-396.489 304.992c-1.992 1.532-4.107 2.793-6.301 3.79zM66.848 754.791c2.095-4.635 5.328-8.837 9.642-12.155l416-320c11.503-8.848 27.519-8.848 39.022 0l416.003 320c4.314 3.318 7.546 7.52 9.639 12.155 1.849-5.951 2.848-12.263 2.848-18.791v-576c0-35.129-28.871-64-64-64h-768.001c-35.127 0-64 28.871-64 64v576c0 6.528 0.997 12.84 2.847 18.791zM128 864c-70.473 0-128-57.527-128-128v-576c0-70.471 57.527-128 128-128h768.001c70.471 0 128 57.53 128 128v576c0 70.473-57.53 128-128 128h-768.001z" />
<glyph unicode="&#xe90c;" glyph-name="cross" d="M986.51 741.49c49.987 49.988 49.987 131.033 0 181.020s-131.032 49.987-181.020 0l-293.49-293.491-293.49 293.491c-49.988 49.987-131.033 49.987-181.020 0s-49.987-131.032 0-181.020l293.491-293.49-293.491-293.49c-49.987-49.988-49.987-131.032 0-181.020s131.032-49.987 181.020 0l293.49 293.491 293.49-293.491c49.988-49.987 131.032-49.987 181.020 0s49.987 131.032 0 181.020l-293.491 293.49 293.491 293.49z" />
<glyph unicode="&#xe90d;" glyph-name="chevron-right" d="M245.738 945.487c19.35 19.35 50.722 19.35 70.072 0l462.452-462.452c19.35-19.351 19.35-50.722 0-70.072l-462.452-462.45c-19.35-19.351-50.722-19.351-70.072 0s-19.35 50.718 0 70.068l427.416 427.419-427.416 427.416c-19.35 19.35-19.35 50.722 0 70.072z" />
<glyph unicode="&#xe90e;" glyph-name="chevron-down-bold" d="M1000.322 720.743c31.571-31.571 31.571-82.757 0-114.328l-431.158-431.158c-15.16-15.16-35.723-23.678-57.164-23.678s-42.003 8.517-57.164 23.678l-431.158 431.158c-31.571 31.571-31.571 82.757 0 114.328s82.757 31.571 114.328 0l373.994-373.994 373.994 373.994c31.571 31.571 82.758 31.571 114.328 0z" />
<glyph unicode="&#xe90f;" glyph-name="phone" d="M883.847-63.999c-4.672 0-9.344 0-14.016 0-149.491 18.701-298.986 70.138-425.123 149.626-116.793 74.81-219.571 177.683-294.318 294.575-79.419 126.246-130.808 275.872-149.495 425.497-4.672 37.407 9.343 74.813 32.702 102.868s56.060 46.758 93.434 51.434c4.672 0 9.344 0 14.015 0h140.152c70.076 0 130.808-51.434 140.151-121.571 4.672-42.083 14.015-84.164 28.030-121.571 18.687-51.434 9.344-107.543-28.030-144.95l-37.373-37.406c56.060-84.164 126.136-158.977 214.899-215.085l32.702 32.728c37.371 37.407 98.107 51.434 149.492 32.731 37.376-14.028 79.424-23.379 121.466-28.055 70.074-9.352 121.466-70.134 121.466-140.271v-140.275c0-37.408-14.016-74.816-42.048-98.195-28.026-23.379-60.73-42.080-98.106-42.080zM281.199 866.484h-140.152c-18.687 0-28.030-9.352-37.373-18.703-4.672-9.352-9.343-18.703-9.343-32.731 14.015-135.598 60.732-266.52 135.48-383.416 70.076-107.543 158.838-201.062 266.287-266.521 116.793-74.81 247.603-121.568 383.078-135.597 18.688 0 28.032 4.672 37.376 14.029 9.344 9.35 14.016 18.701 14.016 32.73v140.275c0 23.379-18.688 42.080-42.048 46.758-46.714 4.672-93.434 18.701-140.147 37.402-18.688 4.678-37.376 4.678-51.392-9.35l-60.732-60.787c-14.015-14.022-37.373-18.701-56.060-9.35-126.136 70.138-228.914 173.006-298.989 299.252-4.672 18.703 0 42.082 14.015 56.109l60.732 60.785c14.015 14.028 18.687 32.731 9.344 51.434-18.687 46.758-28.031 93.516-37.374 140.274-4.671 18.703-23.359 37.406-46.717 37.406z" />
<glyph unicode="&#xe910;" glyph-name="sides-arrows" d="M834.476 409.061c-11.764 11.762-30.835 11.762-42.598 0-11.758-11.762-11.758-30.831 0-42.592l129.295-129.292h-830.818c-16.633 0-30.117-13.481-30.117-30.117 0-16.631 13.484-30.117 30.117-30.117h830.818l-129.295-129.289c-11.758-11.764-11.758-30.835 0-42.598 11.764-11.758 30.835-11.758 42.598 0l180.706 180.706c11.758 11.764 11.758 30.835 0 42.598l-180.706 180.703zM189.529 486.939c11.762-11.762 30.831-11.762 42.592 0s11.762 30.831 0 42.592l-129.298 129.298h830.824c16.631 0 30.117 13.478 30.117 30.111s-13.487 30.124-30.117 30.124h-830.812l129.285 129.285c11.762 11.762 11.762 30.831 0 42.593s-30.831 11.762-42.592 0l-180.335-180.334c-5.668-5.477-9.192-13.158-9.192-21.661 0-0.219 0.003-0.445 0.007-0.664 0.125-5.785 1.88-11.167 4.826-15.707 1.144-1.766 2.478-3.422 3.988-4.932l180.706-180.706z" />
<glyph unicode="&#xe911;" glyph-name="basket" d="M795.255 28.596c0 36.097 29.26 65.362 65.362 65.362 36.097 0 65.362-29.265 65.362-65.362s-29.265-65.362-65.362-65.362c-36.101 0-65.362 29.265-65.362 65.362zM315.915 28.596c0 36.097 29.263 65.362 65.362 65.362s65.362-29.265 65.362-65.362c0-36.097-29.263-65.362-65.362-65.362s-65.362 29.265-65.362 65.362zM0 900.085c0 18.050 14.632 32.681 32.681 32.681h174.298c15.576 0 28.989-10.993 32.045-26.267l38.35-191.606h713.945c9.739 0 18.973-4.345 25.182-11.848s8.746-17.387 6.92-26.954l-69.762-365.834c-5.482-27.587-20.489-52.364-42.393-69.998-21.822-17.565-49.104-26.929-77.101-26.472h-422.967c-28-0.457-55.281 8.906-77.1 26.472-21.897 17.626-36.9 42.389-42.385 69.959v0l-72.856 364.009c-0.254 1.012-0.461 2.044-0.619 3.091l-38.046 190.087h-147.51c-18.050 0-32.681 14.632-32.681 32.681zM290.455 649.532l65.357-326.542c2.49-12.536 9.312-23.801 19.269-31.818 9.958-8.014 22.418-12.275 35.199-12.027l0.626 0.004 424.171-0.004c12.78-0.249 25.238 4.013 35.2 12.027 9.926 7.996 16.737 19.216 19.247 31.714l0.022 0.105 62.272 326.542h-661.363z" />
<glyph unicode="&#xe912;" glyph-name="consult" d="M863.001 180.311h74.185c47.868 0 86.814 38.374 86.814 85.542v125.239c0 42.85-32.171 78.332-73.941 84.493v52.766c0 238.010-196.51 431.65-438.059 431.65s-438.057-193.64-438.057-431.65v-52.766c-41.773-6.161-73.943-41.643-73.943-84.493v-125.239c0-47.168 38.944-85.542 86.812-85.542h73.656c34.691 0 62.911 27.806 62.911 61.99v172.339c-0.116 37.244-35.27 67.635-73.943 61.99v51.721c0 196.997 162.643 357.261 362.564 357.261 199.923 0 362.564-160.264 362.564-357.261v-51.721c-37.926 1.911-73.984-21.316-73.946-61.99v-189.824c-12.45-28.983-35.405-68.156-76.399-101.483-16.802-13.658-35.106-25.135-54.69-34.334-17.839 32.201-52.523 54.101-92.309 54.101h-81.707c-57.95 0-105.088-46.451-105.088-103.552s47.142-103.548 105.088-103.548h81.707c48.222 0 88.858 32.205 101.171 75.908 34.125 13.035 65.643 31.1 93.871 54.033 45.542 37.030 73.673 79.573 90.739 114.368zM147.88 254.701h-61.074c-6.241 0-11.319 5.005-11.319 11.153v125.239c0 6.144 5.078 11.149 11.319 11.149h61.074v-147.541zM876.108 402.242h61.073c6.242 0 11.319-5.005 11.319-11.149v-125.239c0-6.148-5.077-11.153-11.319-11.153h-61.073v147.541zM577.219 10.4h-81.707c-16.324 0-29.594 13.086-29.594 29.163s13.274 29.158 29.594 29.158h81.707c16.286 0 29.534-13.022 29.589-29.056v-0.188c-0.047-16.043-13.295-29.077-29.589-29.077z" />
<glyph unicode="&#xe913;" glyph-name="award" d="M941.116 696.34c-0.527 27.646-1.028 53.764-1.028 79.030 0 19.795-16.043 35.843-35.844 35.843-153.284 0-269.994 44.053-367.274 138.638-13.919 13.534-36.064 13.529-49.975 0-97.272-94.586-213.96-138.638-367.238-138.638-19.795 0-35.843-16.048-35.843-35.843 0-25.271-0.497-51.398-1.027-79.050-4.913-257.284-11.642-609.641 417.355-758.34 3.804-1.32 7.771-1.98 11.738-1.98s7.938 0.66 11.734 1.98c429.031 148.703 422.311 501.072 417.399 758.36zM511.985 9.88c-367.921 133.655-362.358 426.437-357.422 685.075 0.296 15.522 0.583 30.566 0.784 45.315 143.561 6.060 258.362 49.563 356.638 135.174 98.285-85.611 213.105-129.12 356.677-135.174 0.201-14.743 0.485-29.778 0.781-45.291 4.934-258.645 10.49-551.44-357.458-685.098zM635.411 572.517l-172.994-172.987-73.82 73.823c-13.998 13.991-36.693 13.991-50.686 0-13.998-14.002-13.998-36.693 0-50.692l99.165-99.165c6.997-6.997 16.172-10.494 25.342-10.494 9.174 0 18.349 3.497 25.346 10.494l198.333 198.329c14.002 13.998 14.002 36.693 0.004 50.684-13.995 13.999-36.69 14.004-50.688 0.008z" />
</font>
</defs>
</svg>
